<?xml version="1.0" encoding="UTF-8"?>
<svg id="Layer_1" xmlns="http://www.w3.org/2000/svg" version="1.1" viewBox="0 0 720 560">
  <defs>
    <style>
      .st0, .st1, .st2, .st3, .st4 {
        fill: none;
      }

      .st1 {
        stroke-dasharray: 6 4;
      }

      .st1, .st2, .st3, .st4 {
        stroke: #000;
      }

      .st5 {
        font-family: Arial-BoldMT, Arial;
        font-size: 11px;
        font-weight: 700;
        letter-spacing: .08em;
      }

      .st5, .st6, .st7 {
        isolation: isolate;
      }

      .st2 {
        stroke-width: 1.5px;
      }

      .st6 {
        letter-spacing: .08em;
      }

      .st6, .st7 {
        font-family: ArialMT, Arial;
        font-size: 9px;
      }

      .st7 {
        letter-spacing: .06em;
      }

      .st3 {
        stroke-width: .5px;
      }

      .st4 {
        stroke-width: 3px;
      }
    </style>
  </defs>
  <rect class="st4" x="250" y="30" width="220" height="40"/>
  <text class="st5" transform="translate(303.73 55)"><tspan x="0" y="0">MARTIN GRASSER</tspan></text>
  <path class="st0" d=""/>
  <path d="M200,160" marker-end="url(#arrow)"/>
  <path class="st0" d=""/>
  <rect class="st2" x="60" y="170" width="280" height="50"/>
  <text class="st5" transform="translate(114.92 192)"><tspan x="0" y="0">CAPITAL STRUCTURES INC.</tspan></text>
  <text class="st6" transform="translate(143.26 207)"><tspan x="0" y="0">PARENT / GUARANTOR</tspan></text>
  <text class="st6" transform="translate(168.27 86.64)"><tspan x="0" y="0">AUTHORIZES</tspan></text>
  <text class="st6" transform="translate(505.36 86.64)"><tspan x="0" y="0">PERSONALLY ACQUIRES</tspan></text>
  <path class="st2" d="M455,170h170c13.81,0,25,11.19,25,25h0c0,13.81-11.19,25-25,25h-170c-13.81,0-25-11.19-25-25h0c0-13.81,11.19-25,25-25Z"/>
  <text class="st5" transform="translate(492.11 200)"><tspan x="0" y="0">CLASS B UNITS</tspan></text>
  <path class="st0" d=""/>
  <path d="M195.76,305.14l-6,12-6-12h12Z"/>
  <path d="M200,320" marker-end="url(#arrow)"/>
  <text class="st6" transform="translate(215 275)"><tspan x="0" y="0">CREATES / CONTROLS</tspan></text>
  <rect class="st2" x="60" y="330" width="280" height="50"/>
  <text class="st5" transform="translate(124.88 360)"><tspan x="0" y="0">PROTECTED SERIES 001</tspan></text>
  <path class="st0" d=""/>
  <line class="st0" x1="200" y1="220" x2="200" y2="320"/>
  <line class="st1" x1="340" y1="210" x2="340" y2="330"/>
  <text class="st6" transform="translate(411.51 275)"><tspan x="0" y="0">GUARANTEES PERFORMANCE</tspan></text>
  <text class="st6" transform="translate(360 311.14)"><tspan x="0" y="0">ISSUES</tspan></text>
  <line class="st3" x1="60" y1="460" x2="660" y2="460"/>
  <text class="st7" transform="translate(234.86 490)"><tspan x="0" y="0">FULLY CONSOLIDATED / SELF-DEALING DISCLOSED</tspan></text>
  <text class="st7" transform="translate(60 530)"><tspan x="0" y="0">STRUCTURE 001 — SELF-DEALING ARCHITECTURE</tspan></text>
  <line class="st2" x1="189.76" y1="307.29" x2="189.76" y2="225.61"/>
  <path d="M483.51,94.15l-4.24-12.73,12.73,4.24-8.49,8.49Z"/>
  <line class="st0" x1="540.71" y1="157.35" x2="470" y2="86.64"/>
  <line class="st2" x1="486.23" y1="88.38" x2="543.99" y2="146.14"/>
  <path d="M195.37,142.58l-12.73,4.24,4.24-12.73,8.49,8.49Z"/>
  <line class="st2" x1="189.6" y1="139.86" x2="247.36" y2="82.1"/>
  <path d="M415.31,231.8l12.73-4.24-4.24,12.73-8.49-8.49Z"/>
  <line class="st2" x1="421.08" y1="234.52" x2="363.32" y2="292.28"/>
</svg>