<?xml version="1.0" encoding="UTF-8"?>
<svg id="Layer_1" xmlns="http://www.w3.org/2000/svg" version="1.1" viewBox="0 0 720 400">
  <defs>
    <style>
      .st0, .st1, .st2 {
        fill: none;
      }

      .st3 {
        font-family: Arial-BoldMT, Arial;
        font-size: 11px;
        font-weight: 700;
        letter-spacing: .08em;
      }

      .st3, .st4, .st5, .st6, .st7 {
        isolation: isolate;
      }

      .st1 {
        stroke-width: 1.5px;
      }

      .st1, .st2 {
        stroke: #000;
      }

      .st4 {
        letter-spacing: .08em;
      }

      .st4, .st5 {
        font-size: 9px;
      }

      .st4, .st5, .st6, .st7 {
        font-family: ArialMT, Arial;
      }

      .st5 {
        letter-spacing: .06em;
      }

      .st2 {
        stroke-width: .5px;
      }

      .st6 {
        letter-spacing: .08em;
      }

      .st6, .st7 {
        font-size: 8.5px;
      }

      .st7 {
        letter-spacing: .08em;
      }
    </style>
  </defs>
  <rect class="st1" x="40" y="100" width="220" height="50"/>
  <text class="st3" transform="translate(79.98 130)"><tspan x="0" y="0">Capital Structures, Inc.</tspan></text>
  <rect class="st1" x="460" y="100" width="220" height="50"/>
  <text class="st3" transform="translate(523.9 130)"><tspan x="0" y="0">VERSE.WORKS</tspan></text>
  <path class="st1" d="M310.06,105h100c11.05,0,20,8.95,20,20h0c0,11.05-8.95,20-20,20h-100c-11.05,0-20-8.95-20-20h0c0-11.05,8.95-20,20-20Z"/>
  <text class="st4" transform="translate(334.43 122)"><tspan x="0" y="0">ADVISORY</tspan></text>
  <text class="st4" transform="translate(328.8 135)"><tspan x="0" y="0">AGREEMENT</tspan></text>
  <line class="st1" x1="260" y1="125" x2="290" y2="125"/>
  <line class="st1" x1="430" y1="125" x2="460" y2="125"/>
  <path class="st0" d=""/>
  <path class="st0" d=""/>
  <path class="st0" d=""/>
  <path class="st0" d=""/>
  <line class="st2" x1="40" y1="340" x2="680" y2="340"/>
  <text class="st5" transform="translate(197.86 365)"><tspan x="0" y="0">NO GOVERNANCE / NO VOTING / NO EQUITY / NOT CONSOLIDATED</tspan></text>
  <text class="st5" transform="translate(40 392)"><tspan x="0" y="0">STRUCTURE 002 — VERSE.WORKS ADVISORY AGREEMENT</tspan></text>
  <g>
    <g>
      <path d="M268.06,191l-8,4,8,4v-8Z"/>
      <path d="M260.06,195" marker-end="url(#arrow-left)"/>
      <path d="M268.06,221l-8,4,8,4v-8Z"/>
      <path d="M260.06,225" marker-end="url(#arrow-left)"/>
      <path d="M268.06,251l-8,4,8,4v-8Z"/>
      <path d="M260.06,255" marker-end="url(#arrow-left)"/>
      <path d="M452.06,286l8,4-8,4v-8Z"/>
      <path d="M460.06,290" marker-end="url(#arrow)"/>
      <line class="st1" x1="268.06" y1="195" x2="456.06" y2="195"/>
      <line class="st1" x1="268.06" y1="225" x2="456.06" y2="225"/>
      <line class="st1" x1="268.06" y1="255" x2="456.06" y2="255"/>
      <line class="st1" x1="268.06" y1="290" x2="456.06" y2="290"/>
    </g>
    <text class="st6" transform="translate(307.31 188)"><tspan x="0" y="0">PROMOTIONAL REACH</tspan></text>
    <text class="st7" transform="translate(285.81 218)"><tspan x="0" y="0">COLLECTOR COMMUNICATIONS</tspan></text>
    <text class="st6" transform="translate(309.04 248)"><tspan x="0" y="0">STRATEGIC COUNSEL</tspan></text>
    <text class="st7" transform="translate(347.94 283)"><tspan x="0" y="0">FEES</tspan></text>
  </g>
</svg>